<svg width="200" height="41" viewBox="0 0 200 41" fill="none" xmlns="http://www.w3.org/2000/svg">
<path d="M37.9843 9.62891L36.9887 13.2051C26.4704 14.3679 19.9969 21.4956 19.9969 21.4956C19.9969 21.4956 13.1104 13.9158 2.00943 13.1151V9.62891L0.223633 13.9968V35.4743C0.223633 35.4743 12.184 33.4725 19.9969 40.2785C27.8097 33.4725 39.7701 35.4743 39.7701 35.4743V13.9968L37.9843 9.62891Z" fill="#68E1FD"/>
<path d="M19.9968 40.4977C19.9433 40.4971 19.8919 40.4771 19.8517 40.4415C12.1951 33.7817 0.379866 35.671 0.259324 35.6912C0.227265 35.6964 0.194479 35.6944 0.163251 35.6855C0.132023 35.6765 0.103104 35.6608 0.0785112 35.6395C0.0540089 35.6184 0.0343376 35.5922 0.0208504 35.5626C0.00736331 35.5331 0.000380842 35.501 0.000382964 35.4685V13.9911C2.73972e-05 13.9619 0.00533496 13.9328 0.0160086 13.9056L1.8018 9.53772C1.8215 9.48952 1.8572 9.44971 1.90281 9.42509C1.94841 9.40048 2.00108 9.39259 2.05182 9.40277C2.10341 9.41282 2.14983 9.44089 2.1829 9.48203C2.21597 9.52317 2.23358 9.57475 2.23263 9.62769V12.9047C12.242 13.7032 18.8807 20.0482 19.9968 21.1727C21.0728 20.0774 27.3342 14.0991 36.8146 12.997L37.77 9.56696C37.7825 9.52162 37.8089 9.48138 37.8453 9.45193C37.8818 9.42247 37.9265 9.40528 37.9731 9.40277C38.0202 9.39926 38.0671 9.41086 38.1072 9.43591C38.1473 9.46097 38.1785 9.49819 38.1963 9.54222L39.9821 13.9101C39.9936 13.9372 39.9996 13.9662 40 13.9956V35.473C40 35.5055 39.993 35.5376 39.9795 35.5671C39.966 35.5967 39.9464 35.6229 39.9219 35.644C39.8973 35.6653 39.8684 35.681 39.8371 35.69C39.8059 35.6989 39.7731 35.7009 39.7411 35.6957C39.6205 35.6755 27.8008 33.7907 20.1486 40.446C20.1061 40.4816 20.052 40.5 19.9968 40.4977ZM4.25728 34.9805C8.44497 34.9805 15.039 35.7587 19.9968 39.9759C27.1668 33.8784 37.7588 34.9737 39.5468 35.2099V14.0361L38.0245 10.3114L37.203 13.2601C37.1909 13.303 37.1663 13.3413 37.1326 13.3702C37.0988 13.399 37.0572 13.4171 37.0132 13.4221C26.707 14.5624 20.2268 21.5731 20.162 21.6428C20.1411 21.666 20.1156 21.6845 20.0872 21.6972C20.0587 21.7099 20.0279 21.7165 19.9968 21.7165C19.9657 21.7165 19.935 21.7099 19.9065 21.6972C19.8781 21.6845 19.8526 21.666 19.8317 21.6428C19.7647 21.5686 12.8737 14.1193 1.99378 13.3343C1.93732 13.3304 1.88448 13.3049 1.84594 13.2631C1.8074 13.2214 1.78604 13.1664 1.78618 13.1094V10.759L0.446832 14.0361V35.2099C1.71082 35.0516 2.98357 34.975 4.25728 34.9805Z" fill="#093F68"/>
<path d="M19.9968 37.9765V18.0487C19.9968 18.0487 13.0166 9.01153 2.0094 9.6278V32.8394C2.0094 32.8394 12.8804 30.6959 19.9968 37.9765Z" fill="white"/>
<path d="M19.9968 38.2004C19.9673 38.2003 19.9381 38.1943 19.9109 38.1827C19.8837 38.1711 19.859 38.1542 19.8383 38.1329C12.8916 31.0255 2.15896 33.0363 2.05181 33.0588C2.01916 33.0652 1.98551 33.0641 1.95332 33.0557C1.92113 33.0473 1.89121 33.0317 1.86575 33.0102C1.84029 32.9886 1.81993 32.9616 1.80616 32.9311C1.79239 32.9006 1.78556 32.8674 1.78617 32.8339V9.6268C1.78607 9.56941 1.80774 9.51415 1.84675 9.47234C1.88575 9.43053 1.93915 9.40532 1.996 9.40188C12.9965 8.77885 20.1017 17.8183 20.1732 17.9083C20.2039 17.9482 20.2204 17.9973 20.2201 18.0477V37.9755C20.2201 38.0351 20.1965 38.0924 20.1547 38.1345C20.1128 38.1767 20.056 38.2004 19.9968 38.2004ZM5.67921 32.3323C9.42715 32.3323 15.2779 33.1353 19.7736 37.4379V18.1265C19.1486 17.3572 12.4072 9.37938 2.23262 9.84047V32.573C3.37403 32.4073 4.52603 32.3268 5.67921 32.3323Z" fill="#093F68"/>
<path d="M19.9968 37.9765V18.0487C19.9968 18.0487 26.9771 9.01153 37.9843 9.6278V32.8394C37.9843 32.8394 27.1132 30.6959 19.9968 37.9765Z" fill="white"/>
<path d="M19.9968 38.2002C19.9376 38.2002 19.8808 38.1765 19.8389 38.1343C19.7971 38.0921 19.7736 38.0349 19.7736 37.9753V18.0475C19.7732 17.9971 19.7897 17.9479 19.8204 17.9081C19.8919 17.8181 26.9926 8.78089 37.9976 9.40167C38.0545 9.40511 38.1079 9.43032 38.1469 9.47213C38.1859 9.51394 38.2075 9.5692 38.2074 9.62659V32.8382C38.2075 32.8712 38.2003 32.9038 38.1864 32.9338C38.1725 32.9637 38.1523 32.9902 38.1271 33.0113C38.1016 33.0325 38.0718 33.0478 38.0397 33.0559C38.0077 33.0641 37.9742 33.065 37.9418 33.0586C37.8347 33.0361 27.102 31.0343 20.1553 38.1327C20.1346 38.154 20.11 38.1709 20.0827 38.1825C20.0555 38.1941 20.0263 38.2001 19.9968 38.2002ZM20.22 18.1262V37.4377C26.7092 31.2142 36.069 32.3118 37.761 32.5727V9.84026C27.5864 9.38142 20.845 17.3525 20.22 18.1262Z" fill="#093F68"/>
<path d="M17.5414 19.8257C17.485 19.8255 17.4308 19.8038 17.3896 19.765C11.3625 14.0858 5.25289 14.4794 5.19262 14.4839C5.16331 14.4861 5.13385 14.4825 5.10592 14.4732C5.078 14.464 5.05216 14.4493 5.02987 14.4299C4.98487 14.3909 4.95709 14.3355 4.95265 14.2758C4.94821 14.2162 4.96748 14.1572 5.0062 14.1119C5.04492 14.0665 5.09993 14.0385 5.15914 14.0341C5.22164 14.0341 11.5099 13.6135 17.6954 19.4321C17.7385 19.4727 17.7639 19.5289 17.766 19.5883C17.7681 19.6478 17.7467 19.7056 17.7066 19.7492C17.6859 19.7729 17.6605 19.792 17.6321 19.8052C17.6036 19.8183 17.5727 19.8253 17.5414 19.8257Z" fill="#DFEAEF"/>
<path d="M17.5414 23.7944C17.485 23.7943 17.4308 23.7726 17.3896 23.7337C11.3625 18.0545 5.25289 18.4481 5.19262 18.4526C5.16331 18.4549 5.13385 18.4512 5.10592 18.442C5.078 18.4327 5.05216 18.418 5.02987 18.3987C4.98487 18.3597 4.95709 18.3042 4.95265 18.2446C4.94821 18.1849 4.96748 18.126 5.0062 18.0806C5.04492 18.0353 5.09993 18.0073 5.15914 18.0028C5.22164 18.0028 11.5121 17.5822 17.6954 23.4008C17.7385 23.4415 17.7639 23.4977 17.766 23.5571C17.7681 23.6165 17.7467 23.6744 17.7066 23.718C17.6859 23.7417 17.6605 23.7607 17.6321 23.7739C17.6036 23.7871 17.5727 23.7941 17.5414 23.7944Z" fill="#DFEAEF"/>
<path d="M17.5414 27.7593C17.485 27.7591 17.4308 27.7374 17.3896 27.6986C11.3625 22.0216 5.25289 22.413 5.19262 22.4175C5.16331 22.4197 5.13385 22.4161 5.10592 22.4068C5.078 22.3976 5.05216 22.3829 5.02987 22.3635C4.98487 22.3245 4.95709 22.2691 4.95265 22.2094C4.94821 22.1498 4.96748 22.0908 5.0062 22.0455C5.04492 22.0001 5.09993 21.9721 5.15914 21.9676C5.22164 21.9676 11.5121 21.5471 17.6954 27.3657C17.7385 27.4063 17.7639 27.4625 17.766 27.5219C17.7681 27.5814 17.7467 27.6392 17.7066 27.6828C17.6859 27.7065 17.6605 27.7256 17.6321 27.7388C17.6036 27.7519 17.5727 27.7589 17.5414 27.7593Z" fill="#DFEAEF"/>
<path d="M17.5414 31.728C17.485 31.7278 17.4308 31.7061 17.3896 31.6673C11.3625 25.9904 5.25289 26.3817 5.19262 26.3862C5.16331 26.3884 5.13385 26.3848 5.10592 26.3756C5.078 26.3663 5.05216 26.3516 5.02987 26.3323C4.98487 26.2933 4.95709 26.2378 4.95265 26.1782C4.94821 26.1185 4.96748 26.0595 5.0062 26.0142C5.04492 25.9689 5.09993 25.9409 5.15914 25.9364C5.22164 25.9364 11.5121 25.5158 17.6954 31.3344C17.7385 31.3751 17.7639 31.4313 17.766 31.4907C17.7681 31.5501 17.7467 31.608 17.7066 31.6516C17.6859 31.6753 17.6605 31.6943 17.6321 31.7075C17.6036 31.7207 17.5727 31.7277 17.5414 31.728Z" fill="#DFEAEF"/>
<path d="M22.4524 19.8248C22.4217 19.8247 22.3915 19.8182 22.3635 19.8058C22.3354 19.7935 22.3102 19.7754 22.2894 19.7528C22.2478 19.7106 22.2245 19.6536 22.2245 19.5942C22.2245 19.5348 22.2478 19.4778 22.2894 19.4357C25.5172 16.397 28.7473 15.0902 30.888 14.5279C33.2162 13.9184 34.761 14.0286 34.8257 14.0354C34.8845 14.04 34.9392 14.0679 34.9777 14.113C35.0162 14.1581 35.0354 14.2167 35.0311 14.276C35.0265 14.3353 34.9988 14.3904 34.954 14.4292C34.9093 14.468 34.8511 14.4873 34.7922 14.483C34.7319 14.483 28.629 14.0848 22.5952 19.764C22.5563 19.8008 22.5056 19.8224 22.4524 19.8248Z" fill="#DFEAEF"/>
<path d="M22.4524 23.7925C22.4217 23.7924 22.3915 23.7859 22.3635 23.7736C22.3354 23.7612 22.3102 23.7431 22.2894 23.7205C22.2478 23.6784 22.2245 23.6214 22.2245 23.5619C22.2245 23.5025 22.2478 23.4455 22.2894 23.4034C25.5172 20.3647 28.7473 19.058 30.888 18.4979C33.2162 17.8861 34.761 17.9986 34.8257 18.0031C34.8845 18.0077 34.9392 18.0356 34.9777 18.0807C35.0162 18.1258 35.0354 18.1844 35.0311 18.2438C35.0265 18.3031 34.9988 18.3581 34.954 18.3969C34.9093 18.4357 34.8511 18.455 34.7922 18.4507C34.7319 18.4507 28.629 18.0526 22.5952 23.7318C22.5563 23.7686 22.5056 23.7901 22.4524 23.7925Z" fill="#DFEAEF"/>
<path d="M22.4524 27.7573C22.4217 27.7572 22.3915 27.7508 22.3635 27.7384C22.3354 27.726 22.3102 27.708 22.2894 27.6854C22.2478 27.6432 22.2245 27.5862 22.2245 27.5268C22.2245 27.4674 22.2478 27.4104 22.2894 27.3682C25.5172 24.3296 28.7473 23.0228 30.888 22.4628C33.2162 21.851 34.761 21.9634 34.8257 21.9679C34.8845 21.9725 34.9392 22.0004 34.9777 22.0455C35.0162 22.0906 35.0354 22.1493 35.0311 22.2086C35.0265 22.2679 34.9988 22.323 34.954 22.3618C34.9093 22.4005 34.8511 22.4199 34.7922 22.4155C34.7319 22.4155 28.6267 22.0197 22.5952 27.6966C22.5563 27.7334 22.5056 27.7549 22.4524 27.7573Z" fill="#DFEAEF"/>
<path d="M22.4524 31.73C22.4217 31.7299 22.3915 31.7234 22.3635 31.7111C22.3354 31.6987 22.3102 31.6806 22.2894 31.658C22.2478 31.6159 22.2245 31.5589 22.2245 31.4994C22.2245 31.44 22.2478 31.383 22.2894 31.3409C25.5172 28.3022 28.7473 26.9955 30.888 26.4354C33.2162 25.8236 34.761 25.9361 34.8257 25.9406C34.8845 25.9452 34.9392 25.9731 34.9777 26.0182C35.0162 26.0633 35.0354 26.1219 35.0311 26.1813C35.0265 26.2406 34.9988 26.2956 34.954 26.3344C34.9093 26.3732 34.8511 26.3925 34.7922 26.3882C34.7319 26.3882 28.6267 25.9923 22.5952 31.6693C22.5563 31.7061 22.5056 31.7276 22.4524 31.73Z" fill="#DFEAEF"/>
<path d="M19.9968 40.5007C19.9376 40.5007 19.8808 40.4771 19.8389 40.4349C19.7971 40.3927 19.7736 40.3355 19.7736 40.2758V37.9749C19.7736 37.9153 19.7971 37.8581 19.8389 37.8159C19.8808 37.7737 19.9376 37.75 19.9968 37.75C20.056 37.75 20.1128 37.7737 20.1546 37.8159C20.1965 37.8581 20.22 37.9153 20.22 37.9749V40.2758C20.22 40.3355 20.1965 40.3927 20.1546 40.4349C20.1128 40.4771 20.056 40.5007 19.9968 40.5007Z" fill="#093F68"/>
<path d="M39.7701 35.6964C39.7335 35.6965 39.6975 35.6875 39.6652 35.6702C39.6329 35.6529 39.6053 35.628 39.5848 35.5974L37.799 32.9636C37.782 32.9393 37.77 32.9118 37.7637 32.8827C37.7573 32.8536 37.7567 32.8236 37.762 32.7943C37.7672 32.765 37.7782 32.737 37.7943 32.7121C37.8103 32.6871 37.8311 32.6655 37.8555 32.6487C37.8799 32.6319 37.9073 32.6201 37.9363 32.6141C37.9652 32.608 37.995 32.6078 38.024 32.6135C38.053 32.6191 38.0806 32.6305 38.1052 32.647C38.1298 32.6635 38.151 32.6847 38.1674 32.7095L39.9531 35.3455C39.9696 35.37 39.9811 35.3976 39.987 35.4266C39.9928 35.4555 39.993 35.4854 39.9874 35.5144C39.9818 35.5435 39.9706 35.5711 39.9543 35.5958C39.9381 35.6205 39.9172 35.6416 39.8929 35.6582C39.8566 35.6828 39.8139 35.6961 39.7701 35.6964Z" fill="#093F68"/>
<path d="M0.223611 35.6964C0.179091 35.6965 0.135558 35.6832 0.0986059 35.6582C0.074246 35.6416 0.0533581 35.6205 0.0371405 35.5958C0.0209228 35.5711 0.00969448 35.5435 0.00409586 35.5144C-0.00150275 35.4854 -0.00136061 35.4555 0.00451482 35.4266C0.0103902 35.3976 0.0218822 35.37 0.0383343 35.3455L1.82413 32.7095C1.84052 32.6847 1.86164 32.6635 1.88624 32.647C1.91084 32.6305 1.93844 32.6191 1.96745 32.6135C1.99646 32.6078 2.02629 32.608 2.05522 32.6141C2.08414 32.6201 2.11159 32.6319 2.13597 32.6487C2.16034 32.6655 2.18116 32.6871 2.19722 32.7121C2.21328 32.737 2.22425 32.765 2.2295 32.7943C2.23476 32.8236 2.23419 32.8536 2.22783 32.8827C2.22147 32.9118 2.20944 32.9393 2.19245 32.9636L0.406655 35.5974C0.386391 35.6276 0.359142 35.6524 0.327255 35.6697C0.295367 35.6869 0.259798 35.6961 0.223611 35.6964Z" fill="#093F68"/>
<path d="M20.1375 28.4383C21.5318 28.4383 22.6621 27.6397 22.6621 26.6547C22.6621 25.6696 21.5318 24.8711 20.1375 24.8711C18.7431 24.8711 17.6128 25.6696 17.6128 26.6547C17.6128 27.6397 18.7431 28.4383 20.1375 28.4383Z" fill="#093F68"/>
<path d="M20.1375 28.6677C18.624 28.6677 17.3918 27.7681 17.3918 26.6592C17.3918 25.5504 18.624 24.6484 20.1375 24.6484C21.651 24.6484 22.8854 25.5481 22.8854 26.6592C22.8854 27.7703 21.6532 28.6677 20.1375 28.6677ZM20.1375 25.0983C18.8696 25.0983 17.8383 25.7978 17.8383 26.6592C17.8383 27.5206 18.8696 28.2179 20.1375 28.2179C21.4054 28.2179 22.439 27.5184 22.439 26.6592C22.439 25.8 21.4077 25.0983 20.1375 25.0983Z" fill="#093F68"/>
<path d="M27.5686 12.1016C27.5687 10.8829 27.2748 9.68253 26.7122 8.60374C26.1497 7.52494 25.3353 6.60008 24.3392 5.9088C23.3432 5.21752 22.1953 4.78054 20.9944 4.63549C19.7936 4.49043 18.5757 4.64165 17.4457 5.07613C16.3157 5.5106 15.3074 6.21531 14.5078 7.12956C13.7081 8.04381 13.1409 9.14022 12.8551 10.3244C12.5693 11.5085 12.5735 12.7449 12.8672 13.927C13.1609 15.1092 13.7354 16.2017 14.5412 17.1105C15.769 18.4665 16.5279 20.1868 16.7043 22.0137H23.5037C23.643 20.2316 24.3671 18.5469 25.5618 17.2252C26.8533 15.8368 27.571 14.0045 27.5686 12.1016Z" fill="white"/>
<path d="M23.5059 22.2439H16.7065C16.6506 22.2441 16.5967 22.2232 16.5554 22.1853C16.514 22.1474 16.4883 22.0953 16.4833 22.0392C16.3155 20.2575 15.5757 18.5795 14.3761 17.2597C13.383 16.1401 12.7345 14.7538 12.5093 13.2696C12.2841 11.7853 12.492 10.2671 13.1077 8.89975C13.7235 7.5324 14.7204 6.3749 15.9773 5.56816C17.2341 4.76143 18.6966 4.34024 20.1867 4.35589C21.6769 4.37154 23.1303 4.82333 24.3702 5.65629C25.6101 6.48924 26.5829 7.66742 27.1702 9.0474C27.7575 10.4274 27.934 11.9496 27.6782 13.4289C27.4223 14.9081 26.7452 16.2804 25.7293 17.3789C24.5658 18.6626 23.8591 20.2997 23.7202 22.0325C23.717 22.0882 23.6932 22.1408 23.6536 22.1798C23.614 22.2189 23.5613 22.2418 23.5059 22.2439ZM16.9074 21.7941H23.305C23.4849 20.0344 24.2194 18.3791 25.4011 17.0708C26.3583 16.0362 26.9962 14.7435 27.2374 13.3502C27.4785 11.9569 27.3124 10.5229 26.7593 9.223C26.2062 7.92307 25.2899 6.8132 24.122 6.02853C22.9541 5.24386 21.585 4.81823 20.1814 4.80347C18.7778 4.78871 17.4001 5.18544 16.2162 5.94538C15.0324 6.70532 14.0933 7.79567 13.5134 9.08369C12.9334 10.3717 12.7377 11.8018 12.9499 13.1999C13.1621 14.598 13.7732 15.9038 14.7087 16.9583C15.9248 18.2993 16.6937 19.9903 16.9074 21.7941Z" fill="#093F68"/>
<path d="M19.3986 22.2452C19.3394 22.2452 19.2826 22.2215 19.2407 22.1794C19.1989 22.1372 19.1753 22.08 19.1753 22.0203C19.1753 21.9731 19.1753 18.5026 18.7289 16.1027C17.9735 15.9521 17.255 15.6525 16.615 15.221C15.9453 14.7555 15.5747 14.2112 15.5881 13.7321C15.606 13.1833 15.8694 12.7807 16.298 12.6547C16.9676 12.4591 17.8204 12.9651 18.4833 13.9435C18.7937 14.4921 19.0039 15.0924 19.1039 15.7159C19.7856 15.8232 20.4801 15.8171 21.1598 15.6979C21.6174 13.9255 22.2648 12.5783 22.901 12.4501C23.2357 12.3983 23.5777 12.4695 23.8646 12.6508C24.1514 12.8321 24.364 13.1113 24.4635 13.4374C24.5595 13.7658 24.7202 14.8927 22.709 15.7159C22.3315 15.8708 21.9417 15.9934 21.5437 16.0825C21.1241 17.8166 20.8562 19.9736 21.0192 21.7909C21.0245 21.8506 21.0061 21.9099 20.968 21.9559C20.9299 22.0019 20.8752 22.0307 20.816 22.0361C20.7568 22.0414 20.6979 22.0229 20.6523 21.9845C20.6067 21.9461 20.5781 21.891 20.5727 21.8314C20.4515 19.9308 20.6133 18.0226 21.0527 16.1702C20.4392 16.2592 19.8166 16.263 19.2021 16.1814C19.6218 18.6016 19.6285 21.8314 19.6285 22.0293C19.6262 22.0886 19.6007 22.1445 19.5576 22.185C19.5146 22.2254 19.4574 22.2471 19.3986 22.2452ZM16.5971 13.0618C16.5389 13.0617 16.481 13.07 16.4252 13.0866C16.1015 13.181 16.0435 13.5364 16.0368 13.7456C16.0368 14.0605 16.3471 14.4856 16.8717 14.8522C17.407 15.2152 18.004 15.4759 18.6329 15.6214C18.5452 15.12 18.3706 14.6381 18.1173 14.1977C17.5748 13.3947 16.9944 13.0618 16.5971 13.0618ZM23.1309 12.8774C23.0844 12.8773 23.0381 12.8818 22.9925 12.8909C22.5907 12.9719 22.0728 14.0695 21.6531 15.5899C21.9501 15.5126 22.2416 15.4157 22.5259 15.2998C23.6421 14.8499 24.2046 14.1932 24.0193 13.5679C23.9575 13.3743 23.8385 13.2043 23.6781 13.0809C23.5176 12.9575 23.3236 12.8865 23.1219 12.8774H23.1309Z" fill="#70CC40"/>
<path d="M23.4546 21.8125H16.8204C16.5159 21.8125 16.269 22.0612 16.269 22.368V26.4796C16.269 26.7864 16.5159 27.0351 16.8204 27.0351H23.4546C23.7592 27.0351 24.006 26.7864 24.006 26.4796V22.368C24.006 22.0612 23.7592 21.8125 23.4546 21.8125Z" fill="#FFBC0E"/>
<path d="M23.4568 27.2623H16.8204C16.6151 27.2617 16.4184 27.1793 16.2733 27.033C16.1282 26.8868 16.0464 26.6886 16.0458 26.4818V22.3703C16.0464 22.1635 16.1282 21.9653 16.2733 21.8191C16.4184 21.6729 16.6151 21.5904 16.8204 21.5898H23.4568C23.6621 21.5904 23.8588 21.6729 24.0039 21.8191C24.149 21.9653 24.2308 22.1635 24.2314 22.3703V26.4818C24.2308 26.6886 24.149 26.8868 24.0039 27.033C23.8588 27.1793 23.6621 27.2617 23.4568 27.2623ZM16.8204 22.0397C16.7333 22.0397 16.6499 22.0745 16.5883 22.1365C16.5268 22.1985 16.4922 22.2826 16.4922 22.3703V26.4818C16.4922 26.5695 16.5268 26.6536 16.5883 26.7156C16.6499 26.7776 16.7333 26.8124 16.8204 26.8124H23.4568C23.5439 26.8124 23.6273 26.7776 23.6889 26.7156C23.7504 26.6536 23.785 26.5695 23.785 26.4818V22.3703C23.785 22.2826 23.7504 22.1985 23.6889 22.1365C23.6273 22.0745 23.5439 22.0397 23.4568 22.0397H16.8204Z" fill="#093F68"/>
<path d="M23.8988 23.7116H16.3784C16.3192 23.7116 16.2624 23.6879 16.2205 23.6457C16.1787 23.6035 16.1552 23.5463 16.1552 23.4866C16.1552 23.427 16.1787 23.3698 16.2205 23.3276C16.2624 23.2854 16.3192 23.2617 16.3784 23.2617H23.8988C23.958 23.2617 24.0148 23.2854 24.0567 23.3276C24.0985 23.3698 24.122 23.427 24.122 23.4866C24.122 23.5463 24.0985 23.6035 24.0567 23.6457C24.0148 23.6879 23.958 23.7116 23.8988 23.7116Z" fill="#093F68"/>
<path d="M23.8988 25.5866H16.3784C16.3192 25.5866 16.2624 25.5629 16.2205 25.5207C16.1787 25.4785 16.1552 25.4213 16.1552 25.3616C16.1552 25.302 16.1787 25.2448 16.2205 25.2026C16.2624 25.1604 16.3192 25.1367 16.3784 25.1367H23.8988C23.958 25.1367 24.0148 25.1604 24.0567 25.2026C24.0985 25.2448 24.122 25.302 24.122 25.3616C24.122 25.4213 24.0985 25.4785 24.0567 25.5207C24.0148 25.5629 23.958 25.5866 23.8988 25.5866Z" fill="#093F68"/>
<path d="M11.6125 9.25555C11.5849 9.25579 11.5576 9.25044 11.5321 9.23981L8.70835 8.13096C8.653 8.10948 8.60838 8.06673 8.58431 8.01211C8.56024 7.95749 8.55869 7.89547 8.58 7.83969C8.60131 7.78392 8.64374 7.73896 8.69795 7.7147C8.75217 7.69045 8.81372 7.68889 8.86907 7.71036L11.6929 8.80571C11.7411 8.8249 11.7811 8.86038 11.8062 8.90607C11.8313 8.95176 11.8398 9.00481 11.8303 9.05614C11.8208 9.10746 11.7938 9.15385 11.7541 9.18736C11.7144 9.22087 11.6643 9.23942 11.6125 9.23981V9.25555Z" fill="#DFEAEF"/>
<path d="M14.7488 4.37713C14.7165 4.37713 14.6847 4.3701 14.6554 4.35651C14.6261 4.34292 14.6001 4.3231 14.5791 4.29841L12.7442 2.12795C12.7214 2.10659 12.7033 2.08066 12.691 2.05182C12.6788 2.02299 12.6726 1.99189 12.673 1.96052C12.6734 1.92914 12.6802 1.8982 12.6932 1.86967C12.7061 1.84114 12.7249 1.81565 12.7482 1.79484C12.7715 1.77404 12.7988 1.75838 12.8285 1.74887C12.8582 1.73935 12.8895 1.7362 12.9205 1.73961C12.9514 1.74302 12.9813 1.75292 13.0082 1.76867C13.0352 1.78442 13.0585 1.80567 13.0768 1.83105L14.9117 4.00377C14.9388 4.03649 14.9561 4.07627 14.9616 4.1185C14.967 4.16072 14.9605 4.20365 14.9428 4.24229C14.925 4.28093 14.8967 4.31369 14.8612 4.33676C14.8256 4.35984 14.7844 4.37228 14.7421 4.37263L14.7488 4.37713Z" fill="#DFEAEF"/>
<path d="M28.3811 9.25516C28.3219 9.26589 28.2609 9.2525 28.2115 9.21791C28.1621 9.18332 28.1284 9.13038 28.1177 9.07072C28.1071 9.01107 28.1204 8.9496 28.1547 8.89982C28.189 8.85005 28.2416 8.81606 28.3008 8.80532L31.1246 7.70997C31.152 7.69948 31.1812 7.69453 31.2105 7.69541C31.2398 7.69629 31.2686 7.70298 31.2954 7.71509C31.3221 7.72721 31.3462 7.74451 31.3663 7.76601C31.3864 7.78752 31.4021 7.8128 31.4125 7.84042C31.4337 7.89591 31.4321 7.95758 31.4083 8.01194C31.3845 8.06631 31.3402 8.10896 31.2853 8.13056L28.4615 9.23266C28.4365 9.24562 28.4092 9.25328 28.3811 9.25516Z" fill="#DFEAEF"/>
<path d="M25.2449 4.37481C25.2027 4.37445 25.1614 4.36201 25.1258 4.33894C25.0903 4.31587 25.062 4.28311 25.0443 4.24447C25.0265 4.20583 25.02 4.1629 25.0255 4.12068C25.0309 4.07845 25.0482 4.03866 25.0753 4.00594L26.9169 1.82873C26.9554 1.7834 27.0101 1.75532 27.0692 1.75068C27.1282 1.74604 27.1866 1.76522 27.2316 1.80399C27.2766 1.84277 27.3045 1.89796 27.3091 1.95744C27.3137 2.01691 27.2947 2.07579 27.2562 2.12113L25.4146 4.30283C25.393 4.3263 25.3667 4.34485 25.3375 4.35726C25.3082 4.36967 25.2767 4.37565 25.2449 4.37481Z" fill="#DFEAEF"/>
<path d="M19.9968 3.32272C19.9376 3.32272 19.8808 3.29903 19.8389 3.25685C19.7971 3.21467 19.7736 3.15746 19.7736 3.0978V0.724918C19.7736 0.665266 19.7971 0.608057 19.8389 0.565877C19.8808 0.523697 19.9376 0.5 19.9968 0.5C20.056 0.5 20.1128 0.523697 20.1546 0.565877C20.1965 0.608057 20.22 0.665266 20.22 0.724918V3.0978C20.22 3.15746 20.1965 3.21467 20.1546 3.25685C20.1128 3.29903 20.056 3.32272 19.9968 3.32272Z" fill="#DFEAEF"/>
<path d="M57.517 29.5V12.0455H61.2074V19.2472H68.6989V12.0455H72.3807V29.5H68.6989V22.2898H61.2074V29.5H57.517ZM78.9858 21.9318V29.5H75.3551V16.4091H78.8153V18.7188H78.9688C79.2585 17.9574 79.7443 17.3551 80.4261 16.9119C81.108 16.4631 81.9347 16.2386 82.9062 16.2386C83.8153 16.2386 84.608 16.4375 85.2841 16.8352C85.9602 17.233 86.4858 17.8011 86.8608 18.5398C87.2358 19.2727 87.4233 20.1477 87.4233 21.1648V29.5H83.7926V21.8125C83.7983 21.0114 83.5938 20.3864 83.179 19.9375C82.7642 19.483 82.1932 19.2557 81.4659 19.2557C80.9773 19.2557 80.5455 19.3608 80.1705 19.571C79.8011 19.7812 79.5114 20.0881 79.3011 20.4915C79.0966 20.8892 78.9915 21.3693 78.9858 21.9318ZM90.2848 29.5V16.4091H93.8047V18.6932H93.9411C94.1797 17.8807 94.5803 17.267 95.1428 16.8523C95.7053 16.4318 96.353 16.2216 97.0859 16.2216C97.2678 16.2216 97.4638 16.233 97.674 16.2557C97.8842 16.2784 98.0689 16.3097 98.228 16.3494V19.571C98.0575 19.5199 97.8217 19.4744 97.5206 19.4347C97.2195 19.3949 96.9439 19.375 96.6939 19.375C96.1598 19.375 95.6825 19.4915 95.2621 19.7244C94.8473 19.9517 94.5178 20.2699 94.2734 20.679C94.0348 21.0881 93.9155 21.5597 93.9155 22.0938V29.5H90.2848ZM102.745 34.4091C102.285 34.4091 101.853 34.3722 101.45 34.2983C101.052 34.2301 100.722 34.142 100.461 34.0341L101.279 31.3239C101.705 31.4545 102.089 31.5256 102.43 31.5369C102.776 31.5483 103.075 31.4688 103.325 31.2983C103.58 31.1278 103.788 30.8381 103.947 30.429L104.16 29.875L99.4638 16.4091H103.282L105.992 26.0227H106.129L108.864 16.4091H112.708L107.62 30.9148C107.376 31.6193 107.043 32.233 106.623 32.7557C106.208 33.2841 105.683 33.6903 105.046 33.9744C104.41 34.2642 103.643 34.4091 102.745 34.4091ZM114.634 29.5V12.0455H126.396V15.0881H118.325V19.2472H125.79V22.2898H118.325V26.4574H126.43V29.5H114.634ZM132.892 21.9318V29.5H129.261V16.4091H132.722V18.7188H132.875C133.165 17.9574 133.651 17.3551 134.332 16.9119C135.014 16.4631 135.841 16.2386 136.812 16.2386C137.722 16.2386 138.514 16.4375 139.19 16.8352C139.866 17.233 140.392 17.8011 140.767 18.5398C141.142 19.2727 141.33 20.1477 141.33 21.1648V29.5H137.699V21.8125C137.705 21.0114 137.5 20.3864 137.085 19.9375C136.67 19.483 136.099 19.2557 135.372 19.2557C134.884 19.2557 134.452 19.3608 134.077 19.571C133.707 19.7812 133.418 20.0881 133.207 20.4915C133.003 20.8892 132.898 21.3693 132.892 21.9318ZM150.089 34.6818C148.913 34.6818 147.904 34.5199 147.063 34.196C146.228 33.8778 145.563 33.4432 145.069 32.892C144.575 32.3409 144.254 31.7216 144.106 31.0341L147.464 30.5824C147.566 30.8438 147.728 31.0881 147.95 31.3153C148.171 31.5426 148.464 31.7244 148.827 31.8608C149.197 32.0028 149.646 32.0739 150.174 32.0739C150.964 32.0739 151.614 31.8807 152.126 31.4943C152.643 31.1136 152.901 30.4744 152.901 29.5767V27.1818H152.748C152.589 27.5455 152.35 27.8892 152.032 28.2131C151.714 28.5369 151.305 28.8011 150.805 29.0057C150.305 29.2102 149.708 29.3125 149.015 29.3125C148.032 29.3125 147.137 29.0852 146.33 28.6307C145.529 28.1705 144.89 27.4687 144.413 26.5256C143.941 25.5767 143.705 24.3778 143.705 22.929C143.705 21.446 143.947 20.2074 144.43 19.2131C144.913 18.2187 145.555 17.4744 146.356 16.9801C147.163 16.4858 148.046 16.2386 149.006 16.2386C149.739 16.2386 150.353 16.3636 150.847 16.6136C151.342 16.858 151.739 17.1648 152.04 17.5341C152.347 17.8977 152.583 18.2557 152.748 18.608H152.884V16.4091H156.489V29.6278C156.489 30.7415 156.217 31.6733 155.671 32.4233C155.126 33.1733 154.37 33.7358 153.404 34.1108C152.444 34.4915 151.339 34.6818 150.089 34.6818ZM150.165 26.5852C150.751 26.5852 151.245 26.4403 151.648 26.1506C152.058 25.8551 152.37 25.4347 152.586 24.8892C152.808 24.3381 152.918 23.679 152.918 22.9119C152.918 22.1449 152.81 21.4801 152.594 20.9176C152.379 20.3494 152.066 19.9091 151.657 19.5966C151.248 19.2841 150.751 19.1278 150.165 19.1278C149.569 19.1278 149.066 19.2898 148.657 19.6136C148.248 19.9318 147.938 20.375 147.728 20.9432C147.518 21.5114 147.413 22.1676 147.413 22.9119C147.413 23.6676 147.518 24.321 147.728 24.8722C147.944 25.4176 148.254 25.8409 148.657 26.142C149.066 26.4375 149.569 26.5852 150.165 26.5852ZM163.009 12.0455V29.5H159.379V12.0455H163.009ZM165.918 29.5V16.4091H169.548V29.5H165.918ZM167.741 14.7216C167.202 14.7216 166.739 14.5426 166.352 14.1847C165.972 13.821 165.781 13.3864 165.781 12.8807C165.781 12.3807 165.972 11.9517 166.352 11.5938C166.739 11.2301 167.202 11.0483 167.741 11.0483C168.281 11.0483 168.741 11.2301 169.122 11.5938C169.509 11.9517 169.702 12.3807 169.702 12.8807C169.702 13.3864 169.509 13.821 169.122 14.1847C168.741 14.5426 168.281 14.7216 167.741 14.7216ZM183.349 20.142L180.025 20.3466C179.968 20.0625 179.846 19.8068 179.658 19.5795C179.471 19.3466 179.224 19.1619 178.917 19.0256C178.616 18.8835 178.255 18.8125 177.835 18.8125C177.272 18.8125 176.798 18.9318 176.411 19.1705C176.025 19.4034 175.832 19.7159 175.832 20.108C175.832 20.4205 175.957 20.6847 176.207 20.9006C176.457 21.1165 176.886 21.2898 177.494 21.4205L179.863 21.8977C181.136 22.1591 182.085 22.5795 182.71 23.1591C183.335 23.7386 183.647 24.5 183.647 25.4432C183.647 26.3011 183.394 27.054 182.888 27.7017C182.388 28.3494 181.701 28.8551 180.826 29.2188C179.957 29.5767 178.954 29.7557 177.817 29.7557C176.085 29.7557 174.704 29.3949 173.675 28.6733C172.653 27.946 172.053 26.9574 171.877 25.7074L175.448 25.5199C175.556 26.0483 175.817 26.4517 176.232 26.7301C176.647 27.0028 177.178 27.1392 177.826 27.1392C178.462 27.1392 178.974 27.017 179.36 26.7727C179.752 26.5227 179.951 26.2017 179.957 25.8097C179.951 25.4801 179.812 25.2102 179.539 25C179.266 24.7841 178.846 24.6193 178.278 24.5057L176.011 24.054C174.732 23.7983 173.781 23.3551 173.156 22.7244C172.536 22.0937 172.227 21.2898 172.227 20.3125C172.227 19.4716 172.454 18.7472 172.908 18.1392C173.369 17.5312 174.013 17.0625 174.843 16.733C175.678 16.4034 176.656 16.2386 177.775 16.2386C179.428 16.2386 180.729 16.5881 181.678 17.2869C182.633 17.9858 183.19 18.9375 183.349 20.142ZM189.564 21.9318V29.5H185.933V12.0455H189.462V18.7188H189.615C189.911 17.946 190.388 17.3409 191.047 16.9034C191.706 16.4602 192.533 16.2386 193.527 16.2386C194.436 16.2386 195.229 16.4375 195.905 16.8352C196.587 17.2273 197.115 17.7926 197.49 18.5312C197.871 19.2642 198.058 20.142 198.053 21.1648V29.5H194.422V21.8125C194.428 21.0057 194.223 20.3778 193.808 19.929C193.399 19.4801 192.825 19.2557 192.087 19.2557C191.592 19.2557 191.155 19.3608 190.774 19.571C190.399 19.7812 190.104 20.0881 189.888 20.4915C189.678 20.8892 189.57 21.3693 189.564 21.9318Z" fill="#191825"/>
</svg>
